<svg width="43" height="52" viewBox="0 0 43 52" fill="none" xmlns="http://www.w3.org/2000/svg">
<path fill-rule="evenodd" clip-rule="evenodd" d="M6.28559 1.78225C6.28559 0.79794 7.08353 0 8.06784 0H34.9735C35.9578 0 36.7557 0.79794 36.7557 1.78225C36.7557 2.66746 36.106 3.41852 35.23 3.54594L31.5561 4.08033C31.3391 4.11189 31.3623 4.43202 31.5815 4.43202H37.5867C38.9636 4.43202 40.0797 5.54818 40.0797 6.92503C40.0797 8.30188 38.9636 9.41804 37.5867 9.41804C36.4793 9.41804 35.5815 10.3158 35.5815 11.4233V11.5121C35.5815 11.6566 35.5738 11.7993 35.5589 11.9399C35.5527 11.998 35.5977 12.0496 35.6562 12.0496C41.4871 12.0496 44.762 18.7609 41.1739 23.3571L35.0746 31.1699C34.7194 31.625 34.4218 32.1222 34.1886 32.6503L27.7569 47.2188C25.3164 52.7466 17.4892 52.793 14.9834 47.2944L8.27096 32.5647C8.05604 32.0931 7.78941 31.6468 7.47598 31.2341L1.43801 23.283C-2.06218 18.6737 1.22518 12.0495 7.0128 12.0495H7.37811C7.66346 12.0495 7.88139 11.7974 7.88139 11.5121C7.88139 10.3556 6.94386 9.41804 5.78736 9.41804H4.90059C3.52374 9.41804 2.40757 8.30188 2.40757 6.92503C2.40757 5.54818 3.52373 4.43202 4.90058 4.43202H11.8814C12.0628 4.43202 12.082 4.16712 11.9024 4.14101L7.8113 3.54594C6.9353 3.41852 6.28559 2.66746 6.28559 1.78225Z" fill="white"/>
<path fill-rule="evenodd" clip-rule="evenodd" d="M37.4147 18.8248C37.4941 18.8527 37.5777 18.867 37.6619 18.867C38.4989 18.867 38.6986 17.699 37.9091 17.4209L21.9501 11.7998C21.5201 11.6483 21.0512 11.6483 20.6212 11.7998L4.56633 17.4547C3.79531 17.7263 3.99034 18.867 4.80779 18.867C4.8906 18.867 4.9728 18.8529 5.05085 18.8252L20.5067 13.3405C20.9379 13.1875 21.4085 13.187 21.84 13.339L37.4147 18.8248Z" fill="#025373"/>
<rect x="20.6897" y="12.7421" width="1.108" height="35.4561" rx="0.554002" fill="#025373"/>
</svg>
