<svg width="1080" height="146" viewBox="0 0 1080 146" fill="none" xmlns="http://www.w3.org/2000/svg">
<path d="M0 45.0781C0 33.2201 0 27.2912 3.64322 23.514C7.28643 19.7369 13.2115 19.5229 25.0617 19.095L540 0.5L1054.94 19.095C1066.79 19.5229 1072.71 19.7369 1076.36 23.514C1080 27.2912 1080 33.2201 1080 45.0781V100.922C1080 112.78 1080 118.709 1076.36 122.486C1072.71 126.263 1066.79 126.477 1054.94 126.905L540 145.5L25.0617 126.905C13.2115 126.477 7.28643 126.263 3.64322 122.486C0 118.709 0 112.78 0 100.922V45.0781Z" fill="#012840"/>
</svg>
