<svg width="1080" height="129" viewBox="0 0 1080 129" fill="none" xmlns="http://www.w3.org/2000/svg">
<path fill-rule="evenodd" clip-rule="evenodd" d="M0 1C0 0.447716 0.447715 0 1 0H1079C1079.55 0 1080 0.447715 1080 1V82V83C1080 83.5523 1079.55 84 1079 84V84C1077.48 84 1076.07 84.2114 1074.59 84.5586C1040.89 92.4516 853.59 98.6954 616.805 99.8193C596.854 99.914 579.958 120.445 561.194 127.224C558.011 128.373 554.579 129 551 129H529C525.421 129 521.989 128.373 518.806 127.224C500.042 120.445 483.146 99.914 463.195 99.8193C226.41 98.6954 39.1092 92.4516 5.41351 84.5586C3.93138 84.2114 2.52225 84 1 84V84C0.44772 84 0 83.5523 0 83V82V1Z" fill="#012840"/>
</svg>
