<svg width="89" height="101" viewBox="0 0 89 101" fill="none" xmlns="http://www.w3.org/2000/svg">
<path fill-rule="evenodd" clip-rule="evenodd" d="M17.0556 3.21704C17.0556 1.44032 18.4959 0 20.2726 0H68.8385C70.6152 0 72.0556 1.44032 72.0556 3.21704C72.0556 4.81489 70.8828 6.17058 69.3016 6.40058L65.8566 6.90167C65.179 7.00023 65.2513 8 65.9361 8H74.0556C76.2647 8 78.0556 9.79086 78.0556 12V13C78.0556 15.2091 76.2647 17 74.0556 17H72.9361C71.2792 17 69.9361 18.3431 69.9361 20C69.9361 20.9665 70.7196 21.75 71.6861 21.75H81.6194C87.4503 21.75 90.7252 28.4614 87.1371 33.0575L68.5904 56.8148C68.2352 57.2699 67.9376 57.7671 67.7045 58.2952L50.7385 96.7245C48.298 102.252 40.4708 102.299 37.965 96.8001L20.3789 58.2096C20.164 57.738 19.8974 57.2917 19.5839 56.879L1.43801 32.9834C-2.06219 28.3742 1.22519 21.75 7.01281 21.75H18.186C19.1525 21.75 19.936 20.9665 19.936 20C19.936 18.3431 18.5929 17 16.936 17H14.0556C11.8464 17 10.0556 15.2091 10.0556 13V12C10.0556 9.79086 11.8464 8 14.0556 8H23.936C24.5525 8 24.6176 7.09993 24.0076 7.0112L19.8095 6.40058C18.2283 6.17058 17.0556 4.81489 17.0556 3.21704Z" fill="white"/>
<path fill-rule="evenodd" clip-rule="evenodd" d="M73.245 33.9796C73.3884 34.0301 73.5393 34.0559 73.6913 34.0559C75.2021 34.0559 75.5625 31.9475 74.1375 31.4456L44.7958 21.1107C44.3658 20.9593 43.8969 20.9593 43.4669 21.1107L13.9522 31.5065C12.5605 31.9967 12.9125 34.0558 14.3881 34.0558C14.5375 34.0558 14.6859 34.0303 14.8268 33.9803L43.2618 23.8899C43.693 23.7369 44.1635 23.7364 44.5951 23.8883L73.245 33.9796Z" fill="#025373"/>
<rect x="43.0555" y="23" width="2" height="64" rx="1" fill="#025373"/>
</svg>
