<svg width="89" height="101" viewBox="0 0 89 101" fill="none" xmlns="http://www.w3.org/2000/svg">
<path fill-rule="evenodd" clip-rule="evenodd" d="M17.0555 3.21704C17.0555 1.44032 18.4959 0 20.2726 0H68.8385C70.6152 0 72.0556 1.44032 72.0556 3.21704C72.0556 4.81489 70.8828 6.17058 69.3016 6.40058L65.8566 6.90167C65.179 7.00023 65.2513 8 65.936 8H74.0556C76.2647 8 78.0556 9.79086 78.0556 12V13C78.0556 15.2091 76.2647 17 74.0556 17H72.936C71.2792 17 69.936 18.3431 69.936 20V20C69.936 20.9665 70.7196 21.75 71.6861 21.75H81.6194C87.4503 21.75 90.7252 28.4614 87.1371 33.0575L70.7476 54.0516C69.9654 55.0536 68.6403 55.4219 67.3876 55.2051C64.7535 54.7492 62.027 55.0546 59.5371 56.1098C56.3575 57.4574 53.7881 59.9325 52.3228 63.0595C50.8575 66.1866 50.5996 69.7449 51.5988 73.0505C52.339 75.4998 53.7307 77.6822 55.6028 79.3775C56.7174 80.3869 57.2499 81.9756 56.6426 83.3512L50.7385 96.7245C48.298 102.252 40.4708 102.299 37.965 96.8001L20.3789 58.2096C20.164 57.738 19.8974 57.2917 19.5839 56.879L1.43801 32.9834C-2.06218 28.3742 1.22519 21.75 7.01281 21.75L18.186 21.75C19.1525 21.75 19.936 20.9665 19.936 20V20C19.936 18.3431 18.5929 17 16.936 17H14.0555C11.8464 17 10.0555 15.2091 10.0555 13V12C10.0555 9.79086 11.8464 8 14.0555 8H23.936C24.5525 8 24.6176 7.09993 24.0076 7.0112L19.8095 6.40058C18.2283 6.17058 17.0555 4.81489 17.0555 3.21704Z" fill="white"/>
<path fill-rule="evenodd" clip-rule="evenodd" d="M73.245 33.9796C73.3884 34.0301 73.5393 34.0559 73.6913 34.0559C75.2021 34.0559 75.5625 31.9475 74.1375 31.4456L44.7958 21.1107C44.3658 20.9593 43.8969 20.9593 43.4669 21.1107L13.9522 31.5066C12.5605 31.9968 12.9125 34.0559 14.3881 34.0559C14.5375 34.0559 14.6859 34.0303 14.8268 33.9803L43.2618 23.8899C43.693 23.7369 44.1635 23.7364 44.5951 23.8884L73.245 33.9796Z" fill="#025373"/>
<rect x="43.0555" y="23" width="2" height="64" rx="1" fill="#025373"/>
<path fill-rule="evenodd" clip-rule="evenodd" d="M74.4898 71.7598C74.4898 74.5212 72.2512 76.7598 69.4898 76.7598C66.7284 76.7598 64.4898 74.5212 64.4898 71.7598C64.4898 71.6457 64.4936 71.5325 64.5011 71.4203C64.557 70.5866 64.3614 69.7062 63.7233 69.1666L63.039 68.5878C62.3726 68.0242 61.3755 68.1075 60.8119 68.7739L60.6078 69.0152C60.1569 69.5483 59.3593 69.615 58.8262 69.1641C58.2931 68.7132 58.2264 67.9155 58.6773 67.3825L59.2896 66.6585C59.6278 66.2587 59.5778 65.6604 59.178 65.3223C58.7782 64.9841 58.1799 65.0341 57.8418 65.4339L57.2295 66.1579C56.7786 66.691 55.9809 66.7576 55.4478 66.3067C54.9147 65.8559 54.8481 65.0582 55.299 64.5251L56.5236 63.0772L57.6812 61.7085C58.3945 60.8651 59.6564 60.7597 60.4998 61.473L66.3405 66.4129C66.9422 66.9218 67.7823 66.9929 68.5567 66.8467C68.859 66.7897 69.1709 66.7598 69.4898 66.7598C72.2512 66.7598 74.4898 68.9984 74.4898 71.7598ZM69.4897 74.7598C71.1466 74.7598 72.4897 73.4167 72.4897 71.7598C72.4897 70.103 71.1466 68.7598 69.4897 68.7598C67.8328 68.7598 66.4897 70.103 66.4897 71.7598C66.4897 73.4167 67.8328 74.7598 69.4897 74.7598Z" fill="white"/>
</svg>
