<svg width="123" height="54" viewBox="0 0 123 54" fill="none" xmlns="http://www.w3.org/2000/svg">
<path fill-rule="evenodd" clip-rule="evenodd" d="M6.28559 1.78225C6.28559 0.79794 7.08353 0 8.06784 0H34.9735C35.9578 0 36.7557 0.79794 36.7557 1.78225C36.7557 2.66746 36.106 3.41852 35.23 3.54594L31.5561 4.08033C31.3391 4.11189 31.3623 4.43202 31.5815 4.43202H37.5867C38.9636 4.43202 40.0797 5.54818 40.0797 6.92503C40.0797 8.30188 38.9636 9.41804 37.5867 9.41804C36.4793 9.41804 35.5815 10.3158 35.5815 11.4233V11.5121C35.5815 11.6566 35.5738 11.7993 35.5589 11.9399C35.5527 11.998 35.5977 12.0496 35.6562 12.0496V12.0496C41.4871 12.0496 44.762 18.7609 41.1739 23.3571L35.0746 31.1699C34.7194 31.625 34.4218 32.1222 34.1886 32.6503L27.7569 47.2188C25.3164 52.7466 17.4892 52.793 14.9834 47.2944L8.27096 32.5647C8.05604 32.0931 7.78941 31.6468 7.47598 31.2341L1.43801 23.283C-2.06218 18.6737 1.22518 12.0495 7.0128 12.0495H7.37811C7.66346 12.0495 7.88139 11.7974 7.88139 11.5121V11.5121C7.88139 10.3556 6.94386 9.41804 5.78737 9.41804H4.90059C3.52374 9.41804 2.40757 8.30188 2.40757 6.92503C2.40757 5.54818 3.52373 4.43202 4.90058 4.43202H11.8814C12.0628 4.43202 12.082 4.16712 11.9024 4.14101L7.8113 3.54594C6.9353 3.41852 6.28559 2.66746 6.28559 1.78225Z" fill="white"/>
<path fill-rule="evenodd" clip-rule="evenodd" d="M37.4147 18.8248C37.4941 18.8527 37.5777 18.867 37.6619 18.867V18.867C38.4989 18.867 38.6986 17.699 37.9091 17.4209L21.9501 11.7998C21.5201 11.6483 21.0512 11.6483 20.6212 11.7998L4.56633 17.4547C3.79531 17.7263 3.99034 18.867 4.80779 18.867V18.867C4.8906 18.867 4.97281 18.8529 5.05085 18.8252L20.5067 13.3405C20.9379 13.1875 21.4085 13.187 21.84 13.339L37.4147 18.8248Z" fill="#025373"/>
<rect x="20.6897" y="12.7421" width="1.108" height="35.4561" rx="0.554002" fill="#025373"/>
<path d="M61.648 10.496C61.2533 10.2933 60.8213 10.1173 60.352 9.968C59.8827 9.81867 59.424 9.744 58.976 9.744C58.3573 9.744 57.8613 9.888 57.488 10.176C57.1253 10.464 56.944 10.848 56.944 11.328C56.944 11.6907 57.0613 12 57.296 12.256C57.5307 12.5013 57.84 12.7147 58.224 12.896C58.608 13.0773 59.008 13.248 59.424 13.408C59.7867 13.5467 60.144 13.7013 60.496 13.872C60.848 14.0427 61.1627 14.256 61.44 14.512C61.728 14.768 61.952 15.0827 62.112 15.456C62.2827 15.8293 62.368 16.2933 62.368 16.848C62.368 17.456 62.2133 18.0107 61.904 18.512C61.6053 19.0133 61.1733 19.408 60.608 19.696C60.0427 19.984 59.3707 20.128 58.592 20.128C58.08 20.128 57.5893 20.0693 57.12 19.952C56.6613 19.8347 56.2347 19.6853 55.84 19.504C55.4453 19.312 55.0933 19.1147 54.784 18.912L55.472 17.696C55.728 17.8773 56.0213 18.0533 56.352 18.224C56.6827 18.384 57.0293 18.5173 57.392 18.624C57.7547 18.72 58.1067 18.768 58.448 18.768C58.8107 18.768 59.168 18.704 59.52 18.576C59.8827 18.4373 60.1813 18.2293 60.416 17.952C60.6507 17.6747 60.768 17.3067 60.768 16.848C60.768 16.4533 60.6613 16.128 60.448 15.872C60.2453 15.6053 59.9733 15.3813 59.632 15.2C59.2907 15.008 58.928 14.8373 58.544 14.688C58.1813 14.5493 57.8133 14.4 57.44 14.24C57.0667 14.0693 56.72 13.8667 56.4 13.632C56.08 13.3867 55.824 13.088 55.632 12.736C55.44 12.384 55.344 11.9573 55.344 11.456C55.344 10.848 55.488 10.32 55.776 9.872C56.0747 9.41333 56.48 9.056 56.992 8.8C57.504 8.53333 58.0907 8.38933 58.752 8.368C59.4987 8.368 60.1547 8.45867 60.72 8.64C61.296 8.82133 61.8027 9.04533 62.24 9.312L61.648 10.496ZM66.7045 20.256C66.1072 20.256 65.6112 20.0747 65.2165 19.712C64.8325 19.3387 64.6298 18.8587 64.6085 18.272V13.376H66.0965V17.744C66.1178 18.1067 66.2192 18.4 66.4005 18.624C66.5925 18.848 66.8912 18.9653 67.2965 18.976C67.6698 18.976 68.0005 18.8693 68.2885 18.656C68.5872 18.432 68.8272 18.1333 69.0085 17.76C69.1898 17.376 69.2805 16.944 69.2805 16.464V13.376H70.7685V20H69.4085L69.2805 18.368L69.3605 18.656C69.2325 18.9653 69.0352 19.2427 68.7685 19.488C68.5125 19.7227 68.2085 19.9093 67.8565 20.048C67.5045 20.1867 67.1205 20.256 66.7045 20.256ZM77.2469 20.16C76.7455 20.16 76.2602 20.0427 75.7909 19.808C75.3322 19.5733 74.9749 19.2587 74.7189 18.864L74.8149 18.4V23.184H73.3429V13.28H74.6229L74.8309 14.976L74.6709 14.512C74.9909 14.1067 75.3962 13.7707 75.8869 13.504C76.3775 13.2373 76.9269 13.104 77.5349 13.104C78.1535 13.104 78.7082 13.2533 79.1989 13.552C79.7002 13.8507 80.0949 14.2667 80.3829 14.8C80.6709 15.3333 80.8149 15.9573 80.8149 16.672C80.8149 17.3867 80.6602 18.0053 80.3509 18.528C80.0415 19.0507 79.6149 19.456 79.0709 19.744C78.5375 20.0213 77.9295 20.16 77.2469 20.16ZM76.9589 18.976C77.3855 18.976 77.7749 18.88 78.1269 18.688C78.4895 18.4853 78.7775 18.2133 78.9909 17.872C79.2042 17.52 79.3109 17.1253 79.3109 16.688C79.3109 16.24 79.2095 15.8453 79.0069 15.504C78.8042 15.152 78.5322 14.8747 78.1909 14.672C77.8602 14.4693 77.4869 14.368 77.0709 14.368C76.6869 14.368 76.3402 14.4427 76.0309 14.592C75.7215 14.7413 75.4655 14.9493 75.2629 15.216C75.0602 15.472 74.9162 15.7707 74.8309 16.112V17.216C74.8842 17.5573 75.0122 17.8613 75.2149 18.128C75.4175 18.3947 75.6682 18.6027 75.9669 18.752C76.2762 18.9013 76.6069 18.976 76.9589 18.976ZM85.8993 20.16C85.1419 20.16 84.4913 20.0107 83.9473 19.712C83.4033 19.4027 82.9819 18.9867 82.6833 18.464C82.3953 17.9307 82.2513 17.3227 82.2513 16.64C82.2513 15.9893 82.4166 15.3973 82.7473 14.864C83.0779 14.3307 83.5206 13.904 84.0753 13.584C84.6299 13.264 85.2486 13.104 85.9313 13.104C86.8059 13.104 87.5313 13.36 88.1073 13.872C88.6833 14.384 89.0726 15.088 89.2753 15.984L83.8193 17.904L83.4673 17.024L87.9473 15.392L87.6273 15.6C87.4993 15.248 87.2859 14.944 86.9873 14.688C86.6886 14.4213 86.2993 14.288 85.8193 14.288C85.4139 14.288 85.0513 14.3893 84.7313 14.592C84.4113 14.784 84.1606 15.0507 83.9793 15.392C83.7979 15.7333 83.7073 16.1227 83.7073 16.56C83.7073 17.0187 83.8033 17.424 83.9953 17.776C84.1873 18.1173 84.4486 18.3893 84.7793 18.592C85.1206 18.784 85.5046 18.88 85.9313 18.88C86.2193 18.88 86.4966 18.8267 86.7633 18.72C87.0406 18.6133 87.2966 18.4747 87.5313 18.304L88.2193 19.408C87.8886 19.632 87.5153 19.8133 87.0993 19.952C86.6939 20.0907 86.2939 20.16 85.8993 20.16ZM92.4678 13.376L92.6118 15.296L92.5318 15.04C92.7024 14.6347 92.9478 14.2933 93.2678 14.016C93.5984 13.728 93.9398 13.5093 94.2918 13.36C94.6544 13.2 94.9691 13.12 95.2358 13.12L95.1558 14.592C94.6544 14.56 94.2118 14.656 93.8278 14.88C93.4544 15.104 93.1558 15.4027 92.9318 15.776C92.7184 16.1493 92.6118 16.5493 92.6118 16.976V20H91.1398V13.376H92.4678ZM101.187 20.16C100.579 20.16 100.041 20.0267 99.5714 19.76C99.1127 19.4933 98.7447 19.1573 98.4674 18.752L98.6434 18.288V20H97.1554V7.616H98.6274V14.896L98.5794 14.336C98.846 13.9733 99.2247 13.68 99.7154 13.456C100.217 13.2213 100.771 13.104 101.379 13.104C101.977 13.104 102.521 13.248 103.011 13.536C103.502 13.824 103.891 14.2293 104.179 14.752C104.478 15.264 104.627 15.8773 104.627 16.592C104.627 17.3387 104.467 17.9787 104.147 18.512C103.838 19.0453 103.422 19.456 102.899 19.744C102.377 20.0213 101.806 20.16 101.187 20.16ZM100.883 18.896C101.31 18.896 101.694 18.7947 102.035 18.592C102.377 18.3893 102.643 18.1173 102.835 17.776C103.027 17.424 103.123 17.024 103.123 16.576C103.123 16.1493 103.022 15.7653 102.819 15.424C102.627 15.072 102.361 14.7947 102.019 14.592C101.689 14.3893 101.31 14.288 100.883 14.288C100.521 14.288 100.185 14.3573 99.8754 14.496C99.566 14.6347 99.3047 14.8267 99.0914 15.072C98.878 15.3067 98.7287 15.584 98.6434 15.904V17.232C98.7287 17.552 98.8727 17.84 99.0754 18.096C99.278 18.3413 99.534 18.5387 99.8434 18.688C100.153 18.8267 100.499 18.896 100.883 18.896ZM106.64 13.376H108.128V20H106.64V13.376ZM106.528 10.976C106.528 10.7413 106.618 10.544 106.8 10.384C106.992 10.224 107.2 10.144 107.424 10.144C107.648 10.144 107.845 10.224 108.016 10.384C108.197 10.544 108.288 10.7413 108.288 10.976C108.288 11.2213 108.197 11.424 108.016 11.584C107.845 11.7333 107.648 11.808 107.424 11.808C107.2 11.808 106.992 11.728 106.8 11.568C106.618 11.408 106.528 11.2107 106.528 10.976ZM113.454 20.16C112.836 20.16 112.27 20.0267 111.758 19.76C111.257 19.4933 110.857 19.104 110.558 18.592C110.27 18.0693 110.126 17.4347 110.126 16.688C110.126 15.952 110.281 15.3173 110.59 14.784C110.9 14.24 111.31 13.824 111.822 13.536C112.345 13.248 112.916 13.104 113.534 13.104C114.153 13.104 114.676 13.248 115.102 13.536C115.529 13.8133 115.854 14.144 116.078 14.528L115.982 14.784L116.126 13.376H117.502V20H116.014V18.272L116.174 18.656C116.132 18.7627 116.036 18.9013 115.886 19.072C115.748 19.232 115.556 19.3973 115.31 19.568C115.076 19.7387 114.804 19.8827 114.494 20C114.185 20.1067 113.838 20.16 113.454 20.16ZM113.854 18.928C114.228 18.928 114.564 18.8587 114.862 18.72C115.161 18.5813 115.406 18.3893 115.598 18.144C115.801 17.888 115.94 17.584 116.014 17.232V15.936C115.929 15.616 115.78 15.3387 115.566 15.104C115.353 14.8587 115.097 14.672 114.798 14.544C114.5 14.4053 114.169 14.336 113.806 14.336C113.412 14.336 113.049 14.432 112.718 14.624C112.388 14.816 112.121 15.0827 111.918 15.424C111.726 15.7653 111.63 16.1653 111.63 16.624C111.63 17.0507 111.732 17.44 111.934 17.792C112.137 18.144 112.409 18.4213 112.75 18.624C113.092 18.8267 113.46 18.928 113.854 18.928ZM55.664 36V24.064H55.68L61.744 32.672L61.088 32.544L67.136 24.064H67.168V36H65.632V27.584L65.728 28.368L61.36 34.544H61.328L56.896 28.368L57.168 27.648V36H55.664ZM72.8761 36.16C72.2575 36.16 71.6921 36.0267 71.1801 35.76C70.6788 35.4933 70.2788 35.104 69.9801 34.592C69.6921 34.0693 69.5481 33.4347 69.5481 32.688C69.5481 31.952 69.7028 31.3173 70.0121 30.784C70.3215 30.24 70.7321 29.824 71.2441 29.536C71.7668 29.248 72.3375 29.104 72.9561 29.104C73.5748 29.104 74.0975 29.248 74.5241 29.536C74.9508 29.8133 75.2761 30.144 75.5001 30.528L75.4041 30.784L75.5481 29.376H76.9241V36H75.4361V34.272L75.5961 34.656C75.5535 34.7627 75.4575 34.9013 75.3081 35.072C75.1695 35.232 74.9775 35.3973 74.7321 35.568C74.4975 35.7387 74.2255 35.8827 73.9161 36C73.6068 36.1067 73.2601 36.16 72.8761 36.16ZM73.2761 34.928C73.6495 34.928 73.9855 34.8587 74.2841 34.72C74.5828 34.5813 74.8281 34.3893 75.0201 34.144C75.2228 33.888 75.3615 33.584 75.4361 33.232V31.936C75.3508 31.616 75.2015 31.3387 74.9881 31.104C74.7748 30.8587 74.5188 30.672 74.2201 30.544C73.9215 30.4053 73.5908 30.336 73.2281 30.336C72.8335 30.336 72.4708 30.432 72.1401 30.624C71.8095 30.816 71.5428 31.0827 71.3401 31.424C71.1481 31.7653 71.0521 32.1653 71.0521 32.624C71.0521 33.0507 71.1535 33.44 71.3561 33.792C71.5588 34.144 71.8308 34.4213 72.1721 34.624C72.5135 34.8267 72.8815 34.928 73.2761 34.928ZM80.8271 29.376L80.9711 31.296L80.8911 31.04C81.0618 30.6347 81.3071 30.2933 81.6271 30.016C81.9578 29.728 82.2991 29.5093 82.6511 29.36C83.0138 29.2 83.3285 29.12 83.5951 29.12L83.5151 30.592C83.0138 30.56 82.5711 30.656 82.1871 30.88C81.8138 31.104 81.5151 31.4027 81.2911 31.776C81.0778 32.1493 80.9711 32.5493 80.9711 32.976V36H79.4991V29.376H80.8271ZM85.5148 29.376H87.0028V36H85.5148V29.376ZM85.4028 26.976C85.4028 26.7413 85.4934 26.544 85.6748 26.384C85.8668 26.224 86.0748 26.144 86.2988 26.144C86.5228 26.144 86.7201 26.224 86.8908 26.384C87.0721 26.544 87.1628 26.7413 87.1628 26.976C87.1628 27.2213 87.0721 27.424 86.8908 27.584C86.7201 27.7333 86.5228 27.808 86.2988 27.808C86.0748 27.808 85.8668 27.728 85.6748 27.568C85.4934 27.408 85.4028 27.2107 85.4028 26.976ZM91.4333 36.128C90.9639 36.128 90.5053 36.048 90.0573 35.888C89.6199 35.7173 89.2573 35.4667 88.9693 35.136L89.5933 34.272C89.8706 34.5387 90.1533 34.7413 90.4413 34.88C90.7399 35.008 91.0333 35.072 91.3213 35.072C91.5346 35.072 91.7319 35.0453 91.9133 34.992C92.0946 34.9387 92.2386 34.8533 92.3453 34.736C92.4626 34.608 92.5213 34.4373 92.5213 34.224C92.5213 33.9893 92.4413 33.8027 92.2812 33.664C92.1319 33.5253 91.9346 33.4133 91.6893 33.328C91.4546 33.2427 91.2039 33.1627 90.9373 33.088C90.3933 32.9067 89.9773 32.656 89.6893 32.336C89.4013 32.016 89.2573 31.6267 89.2573 31.168C89.2573 30.816 89.3426 30.4907 89.5133 30.192C89.6946 29.8827 89.9559 29.632 90.2973 29.44C90.6493 29.248 91.0813 29.152 91.5933 29.152C92.0519 29.152 92.4626 29.2107 92.8253 29.328C93.1879 29.4347 93.5293 29.616 93.8493 29.872L93.2573 30.8C93.0653 30.5973 92.8359 30.448 92.5693 30.352C92.3026 30.256 92.0626 30.2027 91.8493 30.192C91.6679 30.1813 91.4919 30.208 91.3213 30.272C91.1613 30.336 91.0279 30.4267 90.9213 30.544C90.8146 30.6613 90.7613 30.8 90.7613 30.96C90.7613 31.184 90.8359 31.3653 90.9853 31.504C91.1346 31.6427 91.3266 31.7547 91.5613 31.84C91.8066 31.9147 92.0466 31.9947 92.2812 32.08C92.6119 32.176 92.9053 32.304 93.1613 32.464C93.4173 32.624 93.6199 32.8213 93.7693 33.056C93.9293 33.2907 94.0093 33.584 94.0093 33.936C94.0093 34.3307 93.9133 34.6987 93.7213 35.04C93.5399 35.3707 93.2573 35.6373 92.8733 35.84C92.4999 36.032 92.0199 36.128 91.4333 36.128Z" fill="white"/>
</svg>
