<svg width="21" height="22" viewBox="0 0 21 22" fill="none" xmlns="http://www.w3.org/2000/svg">
<path fill-rule="evenodd" clip-rule="evenodd" d="M14.042 16.4562C12.6036 17.4307 10.8683 18 9 18C4.02942 18 0 13.9706 0 9C0 4.02944 4.02942 0 9 0C13.9706 0 18 4.02944 18 9C18 11.3799 17.0762 13.5441 15.5677 15.1535L20.6885 20.2743C21.079 20.6648 21.079 21.298 20.6885 21.6885C20.298 22.079 19.6648 22.079 19.2743 21.6885L14.042 16.4562ZM15 9C15 12.3137 12.3137 15 9 15C5.68628 15 3 12.3137 3 9C3 5.68629 5.68628 3 9 3C12.3137 3 15 5.68629 15 9Z" fill="white"/>
</svg>
